<?xml version="1.0" encoding="UTF-8"?>
<svg xmlns="http://www.w3.org/2000/svg" xmlns:xlink="http://www.w3.org/1999/xlink" width="15pt" height="15pt" viewBox="0 0 15 15" version="1.1">
<g id="surface1">
<path style=" stroke:none;fill-rule:nonzero;fill:rgb(81.176471%,84.705882%,86.27451%);fill-opacity:1;" d="M 12.125 3 L 12.125 13.75 L 2.125 13.75 C 1.859375 13.75 1.605469 13.644531 1.417969 13.457031 C 1.230469 13.269531 1.125 13.015625 1.125 12.75 L 1.125 3 C 1.125 2.734375 1.230469 2.480469 1.417969 2.292969 C 1.605469 2.105469 1.859375 2 2.125 2 L 3.375 2 C 3.375 1.722656 3.597656 1.5 3.875 1.5 L 4.625 1.5 L 4.625 0.75 C 4.625 0.472656 4.847656 0.25 5.125 0.25 L 8.125 0.25 C 8.402344 0.25 8.625 0.472656 8.625 0.75 L 8.625 1.5 L 9.375 1.5 C 9.652344 1.5 9.875 1.722656 9.875 2 L 11.125 2 C 11.390625 2 11.644531 2.105469 11.832031 2.292969 C 12.019531 2.480469 12.125 2.734375 12.125 3 Z M 12.125 3 "/>
<path style=" stroke:none;fill-rule:nonzero;fill:rgb(37.647059%,49.019608%,54.509804%);fill-opacity:1;" d="M 12.125 3 L 12.125 13.75 L 11.375 13.75 L 11.375 3 C 11.375 2.734375 11.269531 2.480469 11.082031 2.292969 C 10.894531 2.105469 10.640625 2 10.375 2 L 11.125 2 C 11.390625 2 11.644531 2.105469 11.832031 2.292969 C 12.019531 2.480469 12.125 2.734375 12.125 3 Z M 12.125 3 "/>
<path style=" stroke:none;fill-rule:nonzero;fill:rgb(0%,51.372549%,56.078431%);fill-opacity:1;" d="M 3.875 1.5 L 9.375 1.5 C 9.652344 1.5 9.875 1.722656 9.875 2 L 9.875 3 C 9.875 3.277344 9.652344 3.5 9.375 3.5 L 3.875 3.5 C 3.597656 3.5 3.375 3.277344 3.375 3 L 3.375 2 C 3.375 1.722656 3.597656 1.5 3.875 1.5 Z M 3.875 1.5 "/>
<path style=" stroke:none;fill-rule:nonzero;fill:rgb(0%,51.372549%,56.078431%);fill-opacity:1;" d="M 8.625 0.75 L 8.625 1.5 L 4.625 1.5 L 4.625 0.75 C 4.625 0.472656 4.847656 0.25 5.125 0.25 L 8.125 0.25 C 8.402344 0.25 8.625 0.472656 8.625 0.75 Z M 8.625 0.75 "/>
<path style=" stroke:none;fill-rule:nonzero;fill:rgb(0%,73.72549%,83.137255%);fill-opacity:1;" d="M 3.875 1.5 L 8.625 1.5 C 8.902344 1.5 9.125 1.722656 9.125 2 L 9.125 3 C 9.125 3.277344 8.902344 3.5 8.625 3.5 L 3.875 3.5 C 3.597656 3.5 3.375 3.277344 3.375 3 L 3.375 2 C 3.375 1.722656 3.597656 1.5 3.875 1.5 Z M 3.875 1.5 "/>
<path style=" stroke:none;fill-rule:nonzero;fill:rgb(0%,73.72549%,83.137255%);fill-opacity:1;" d="M 7.875 0.75 L 7.875 1.5 L 4.625 1.5 L 4.625 0.75 C 4.625 0.472656 4.847656 0.25 5.125 0.25 L 7.375 0.25 C 7.652344 0.25 7.875 0.472656 7.875 0.75 Z M 7.875 0.75 "/>
<path style=" stroke:none;fill-rule:nonzero;fill:rgb(99.215686%,84.705882%,20.392157%);fill-opacity:1;" d="M 13.875 5.25 L 13.875 14.25 C 13.875 14.527344 13.652344 14.75 13.375 14.75 L 5.875 14.75 C 5.65625 14.75 5.460938 14.605469 5.398438 14.398438 C 5.390625 14.382812 5.386719 14.367188 5.386719 14.351562 C 5.378906 14.316406 5.375 14.285156 5.375 14.25 L 5.375 5.25 C 5.375 5.214844 5.378906 5.183594 5.386719 5.148438 C 5.386719 5.132812 5.390625 5.117188 5.398438 5.101562 C 5.460938 4.894531 5.65625 4.75 5.875 4.75 L 13.375 4.75 C 13.652344 4.75 13.875 4.972656 13.875 5.25 Z M 13.875 5.25 "/>
<path style=" stroke:none;fill-rule:nonzero;fill:rgb(100%,92.156863%,22.745098%);fill-opacity:1;" d="M 13.125 5.25 L 13.125 14.25 C 13.136719 14.511719 12.933594 14.734375 12.671875 14.75 L 5.828125 14.75 C 5.621094 14.742188 5.445312 14.597656 5.398438 14.398438 C 5.390625 14.382812 5.386719 14.367188 5.386719 14.351562 C 5.378906 14.316406 5.375 14.285156 5.375 14.25 L 5.375 5.25 C 5.375 5.214844 5.378906 5.183594 5.386719 5.148438 C 5.386719 5.132812 5.390625 5.117188 5.398438 5.101562 C 5.445312 4.902344 5.621094 4.757812 5.828125 4.75 L 12.671875 4.75 C 12.933594 4.765625 13.136719 4.988281 13.125 5.25 Z M 13.125 5.25 "/>
<path style=" stroke:none;fill-rule:nonzero;fill:rgb(0%,0%,0%);fill-opacity:1;" d="M 13.375 4.5 L 12.375 4.5 L 12.375 3 C 12.375 2.308594 11.816406 1.75 11.125 1.75 L 10.078125 1.75 C 9.972656 1.453125 9.691406 1.25 9.375 1.25 L 8.875 1.25 L 8.875 0.75 C 8.875 0.335938 8.539062 0 8.125 0 L 5.125 0 C 4.710938 0 4.375 0.335938 4.375 0.75 L 4.375 1.25 L 3.875 1.25 C 3.558594 1.25 3.277344 1.453125 3.171875 1.75 L 2.125 1.75 C 1.433594 1.75 0.875 2.308594 0.875 3 L 0.875 12.75 C 0.875 13.441406 1.433594 14 2.125 14 L 5.125 14 L 5.125 14.25 C 5.125 14.664062 5.460938 15 5.875 15 L 13.375 15 C 13.789062 15 14.125 14.664062 14.125 14.25 L 14.125 5.25 C 14.125 4.835938 13.789062 4.5 13.375 4.5 Z M 4.875 0.75 C 4.875 0.613281 4.988281 0.5 5.125 0.5 L 8.125 0.5 C 8.261719 0.5 8.375 0.613281 8.375 0.75 L 8.375 1.25 L 4.875 1.25 Z M 3.875 1.75 L 9.375 1.75 C 9.511719 1.75 9.625 1.863281 9.625 2 L 9.625 3 C 9.625 3.136719 9.511719 3.25 9.375 3.25 L 3.875 3.25 C 3.738281 3.25 3.625 3.136719 3.625 3 L 3.625 2 C 3.625 1.863281 3.738281 1.75 3.875 1.75 Z M 2.125 13.5 C 1.710938 13.5 1.375 13.164062 1.375 12.75 L 1.375 3 C 1.375 2.585938 1.710938 2.25 2.125 2.25 L 3.125 2.25 L 3.125 3 C 3.125 3.414062 3.460938 3.75 3.875 3.75 L 9.375 3.75 C 9.789062 3.75 10.125 3.414062 10.125 3 L 10.125 2.25 L 11.125 2.25 C 11.539062 2.25 11.875 2.585938 11.875 3 L 11.875 4.5 L 5.875 4.5 C 5.460938 4.5 5.125 4.835938 5.125 5.25 L 5.125 13.5 Z M 13.625 14.25 C 13.625 14.386719 13.511719 14.5 13.375 14.5 L 5.875 14.5 C 5.738281 14.5 5.625 14.386719 5.625 14.25 L 5.625 5.25 C 5.625 5.113281 5.738281 5 5.875 5 L 13.375 5 C 13.511719 5 13.625 5.113281 13.625 5.25 Z M 13.625 14.25 "/>
<path style=" stroke:none;fill-rule:nonzero;fill:rgb(0%,0%,0%);fill-opacity:1;" d="M 11.875 7.5 L 7.375 7.5 C 7.238281 7.5 7.125 7.613281 7.125 7.75 C 7.125 7.886719 7.238281 8 7.375 8 L 11.875 8 C 12.011719 8 12.125 7.886719 12.125 7.75 C 12.125 7.613281 12.011719 7.5 11.875 7.5 Z M 11.875 7.5 "/>
<path style=" stroke:none;fill-rule:nonzero;fill:rgb(0%,0%,0%);fill-opacity:1;" d="M 11.875 8.75 L 7.375 8.75 C 7.238281 8.75 7.125 8.863281 7.125 9 C 7.125 9.136719 7.238281 9.25 7.375 9.25 L 11.875 9.25 C 12.011719 9.25 12.125 9.136719 12.125 9 C 12.125 8.863281 12.011719 8.75 11.875 8.75 Z M 11.875 8.75 "/>
<path style=" stroke:none;fill-rule:nonzero;fill:rgb(0%,0%,0%);fill-opacity:1;" d="M 11.875 10 L 7.375 10 C 7.238281 10 7.125 10.113281 7.125 10.25 C 7.125 10.386719 7.238281 10.5 7.375 10.5 L 11.875 10.5 C 12.011719 10.5 12.125 10.386719 12.125 10.25 C 12.125 10.113281 12.011719 10 11.875 10 Z M 11.875 10 "/>
<path style=" stroke:none;fill-rule:nonzero;fill:rgb(0%,0%,0%);fill-opacity:1;" d="M 11.875 11.25 L 7.375 11.25 C 7.238281 11.25 7.125 11.363281 7.125 11.5 C 7.125 11.636719 7.238281 11.75 7.375 11.75 L 11.875 11.75 C 12.011719 11.75 12.125 11.636719 12.125 11.5 C 12.125 11.363281 12.011719 11.25 11.875 11.25 Z M 11.875 11.25 "/>
</g>
</svg>
